# Made in Blockbench 5.1.6
mtllib remote_crystal.mtl

o Paired foot
v 0.8125 0.125 0.75
v 0.8125 0.125 0.25
v 0.8125 0 0.75
v 0.8125 0 0.25
v 0.1875 0.125 0.25
v 0.1875 0.125 0.75
v 0.1875 0 0.25
v 0.1875 0 0.75
vt 0.1875000000 0.5625000000
vt 0.8125000000 0.5625000000
vt 0.8125000000 0.4375000000
vt 0.1875000000 0.4375000000
vt 0.2500000000 0.5625000000
vt 0.7500000000 0.5625000000
vt 0.7500000000 0.4375000000
vt 0.2500000000 0.4375000000
vt 0.1875000000 0.5625000000
vt 0.8125000000 0.5625000000
vt 0.8125000000 0.4375000000
vt 0.1875000000 0.4375000000
vt 0.2500000000 0.5625000000
vt 0.7500000000 0.5625000000
vt 0.7500000000 0.4375000000
vt 0.2500000000 0.4375000000
vt 0.1875000000 0.7500000000
vt 0.8125000000 0.7500000000
vt 0.8125000000 0.2500000000
vt 0.1875000000 0.2500000000
vt 0.1875000000 0.7500000000
vt 0.8125000000 0.7500000000
vt 0.8125000000 0.2500000000
vt 0.1875000000 0.2500000000
vn 0 0 -1
vn 1 0 0
vn 0 0 1
vn -1 0 0
vn 0 1 0
vn 0 -1 0
usemtl node_stone
f 4/4/1 7/3/1 5/2/1 2/1/1
f 3/8/2 4/7/2 2/6/2 1/5/2
f 8/12/3 3/11/3 1/10/3 6/9/3
f 7/16/4 8/15/4 6/14/4 5/13/4
f 6/20/5 1/19/5 2/18/5 5/17/5
f 7/24/6 4/23/6 3/22/6 8/21/6
o Twin socket
v 0.78125 0.1875 0.6875
v 0.78125 0.1875 0.3125
v 0.78125 0.125 0.6875
v 0.78125 0.125 0.3125
v 0.21875 0.1875 0.3125
v 0.21875 0.1875 0.6875
v 0.21875 0.125 0.3125
v 0.21875 0.125 0.6875
vt 0.2187500000 0.5312500000
vt 0.7812500000 0.5312500000
vt 0.7812500000 0.4687500000
vt 0.2187500000 0.4687500000
vt 0.3125000000 0.5312500000
vt 0.6875000000 0.5312500000
vt 0.6875000000 0.4687500000
vt 0.3125000000 0.4687500000
vt 0.2187500000 0.5312500000
vt 0.7812500000 0.5312500000
vt 0.7812500000 0.4687500000
vt 0.2187500000 0.4687500000
vt 0.3125000000 0.5312500000
vt 0.6875000000 0.5312500000
vt 0.6875000000 0.4687500000
vt 0.3125000000 0.4687500000
vt 0.2187500000 0.6875000000
vt 0.7812500000 0.6875000000
vt 0.7812500000 0.3125000000
vt 0.2187500000 0.3125000000
vt 0.2187500000 0.6875000000
vt 0.7812500000 0.6875000000
vt 0.7812500000 0.3125000000
vt 0.2187500000 0.3125000000
vn 0 0 -1
vn 1 0 0
vn 0 0 1
vn -1 0 0
vn 0 1 0
vn 0 -1 0
usemtl node_trim
f 12/28/7 15/27/7 13/26/7 10/25/7
f 11/32/8 12/31/8 10/30/8 9/29/8
f 16/36/9 11/35/9 9/34/9 14/33/9
f 15/40/10 16/39/10 14/38/10 13/37/10
f 14/44/11 9/43/11 10/42/11 13/41/11
f 15/48/12 12/47/12 11/46/12 16/45/12
o First tuned point
v 0.4209327650307344 0.1875 0.5928077650307344
v 0.4209327650307344 0.59375 0.5928077650307344
v 0.23531723496926565 0.1875 0.5928077650307344
v 0.23531723496926565 0.59375 0.5928077650307344
v 0.2353172349692656 0.1875 0.40719223496926565
v 0.2353172349692656 0.59375 0.40719223496926565
v 0.42093276503073435 0.1875 0.4071922349692656
v 0.42093276503073435 0.59375 0.4071922349692656
v 0.328125 0.78125 0.5
vt 0 1
vt 1 1
vt 1 0
vt 0 0
vt 0.5 1
vt 1 0
vt 0 0
vt 0 1
vt 1 1
vt 1 0
vt 0 0
vt 0.5 1
vt 1 0
vt 0 0
vt 0 1
vt 1 1
vt 1 0
vt 0 0
vt 0.5 1
vt 1 0
vt 0 0
vt 0 1
vt 1 1
vt 1 0
vt 0 0
vt 0.5 1
vt 1 0
vt 0 0
vt 0 1
vt 1 1
vt 1 0
vt 0 0
vn 0 0 1
vn 0 0.4436069753671347 0.8962214298964417
vn -1 0 2.9906523022548097e-16
vn -0.8962214298964416 0.4436069753671346 2.6802866826498907e-16
vn -2.9906523022548097e-16 0 -1
vn -2.6802866826498907e-16 0.4436069753671346 -0.8962214298964416
vn 1 0 -2.990652302254808e-16
vn 0.8962214298964417 0.44360697536713456 -2.6802866826498897e-16
vn 0 -1 0
usemtl node_crystal
f 18/49/13 20/50/13 19/51/13 17/52/13
f 25/53/14 20/54/14 18/55/14
f 20/56/15 22/57/15 21/58/15 19/59/15
f 25/60/16 22/61/16 20/62/16
f 22/63/17 24/64/17 23/65/17 21/66/17
f 25/67/18 24/68/18 22/69/18
f 24/70/19 18/71/19 17/72/19 23/73/19
f 25/74/20 18/75/20 24/76/20
f 17/77/21 19/78/21 21/79/21 23/80/21
o Second tuned point
v 0.7646827650307344 0.1875 0.5928077650307344
v 0.7646827650307344 0.59375 0.5928077650307344
v 0.5790672349692656 0.1875 0.5928077650307344
v 0.5790672349692656 0.59375 0.5928077650307344
v 0.5790672349692656 0.1875 0.40719223496926565
v 0.5790672349692656 0.59375 0.40719223496926565
v 0.7646827650307344 0.1875 0.4071922349692656
v 0.7646827650307344 0.59375 0.4071922349692656
v 0.671875 0.78125 0.5
vt 0 1
vt 1 1
vt 1 0
vt 0 0
vt 0.5 1
vt 1 0
vt 0 0
vt 0 1
vt 1 1
vt 1 0
vt 0 0
vt 0.5 1
vt 1 0
vt 0 0
vt 0 1
vt 1 1
vt 1 0
vt 0 0
vt 0.5 1
vt 1 0
vt 0 0
vt 0 1
vt 1 1
vt 1 0
vt 0 0
vt 0.5 1
vt 1 0
vt 0 0
vt 0 1
vt 1 1
vt 1 0
vt 0 0
vn 0 0 1
vn 0 0.4436069753671347 0.8962214298964417
vn -1 0 0
vn -0.8962214298964417 0.4436069753671347 0
vn -2.990652302254808e-16 0 -1
vn -2.6802866826498897e-16 0.44360697536713456 -0.8962214298964417
vn 1 0 0
vn 0.8962214298964417 0.4436069753671347 0
vn 0 -1 0
usemtl node_crystal
f 27/81/22 29/82/22 28/83/22 26/84/22
f 34/85/23 29/86/23 27/87/23
f 29/88/24 31/89/24 30/90/24 28/91/24
f 34/92/25 31/93/25 29/94/25
f 31/95/26 33/96/26 32/97/26 30/98/26
f 34/99/27 33/100/27 31/101/27
f 33/102/28 27/103/28 26/104/28 32/105/28
f 34/106/29 27/107/29 33/108/29
f 26/109/30 28/110/30 30/111/30 32/112/30
o Channel inlay
v 0.5625 0.09375 0.265625
v 0.5625 0.09375 0.249375
v 0.5625 0.03125 0.265625
v 0.5625 0.03125 0.249375
v 0.4375 0.09375 0.249375
v 0.4375 0.09375 0.265625
v 0.4375 0.03125 0.249375
v 0.4375 0.03125 0.265625
vt 0.4375000000 0.5312500000
vt 0.5625000000 0.5312500000
vt 0.5625000000 0.4687500000
vt 0.4375000000 0.4687500000
vt 0.4918750000 0.5312500000
vt 0.5081250000 0.5312500000
vt 0.5081250000 0.4687500000
vt 0.4918750000 0.4687500000
vt 0.4375000000 0.5312500000
vt 0.5625000000 0.5312500000
vt 0.5625000000 0.4687500000
vt 0.4375000000 0.4687500000
vt 0.4918750000 0.5312500000
vt 0.5081250000 0.5312500000
vt 0.5081250000 0.4687500000
vt 0.4918750000 0.4687500000
vt 0.4375000000 0.5081250000
vt 0.5625000000 0.5081250000
vt 0.5625000000 0.4918750000
vt 0.4375000000 0.4918750000
vt 0.4375000000 0.5081250000
vt 0.5625000000 0.5081250000
vt 0.5625000000 0.4918750000
vt 0.4375000000 0.4918750000
vn 0 0 -1
vn 1 0 0
vn 0 0 1
vn -1 0 0
vn 0 1 0
vn 0 -1 0
usemtl node_channel
f 38/116/31 41/115/31 39/114/31 36/113/31
f 37/120/32 38/119/32 36/118/32 35/117/32
f 42/124/33 37/123/33 35/122/33 40/121/33
f 41/128/34 42/127/34 40/126/34 39/125/34
f 40/132/35 35/131/35 36/130/35 39/129/35
f 41/136/36 38/135/36 37/134/36 42/133/36
