# Made in Blockbench 5.1.6
mtllib star_storage_crystal.mtl

o Star foot
v 0.875 0.125 0.875
v 0.875 0.125 0.125
v 0.875 0 0.875
v 0.875 0 0.125
v 0.125 0.125 0.125
v 0.125 0.125 0.875
v 0.125 0 0.125
v 0.125 0 0.875
vt 0.1250000000 0.5625000000
vt 0.8750000000 0.5625000000
vt 0.8750000000 0.4375000000
vt 0.1250000000 0.4375000000
vt 0.1250000000 0.5625000000
vt 0.8750000000 0.5625000000
vt 0.8750000000 0.4375000000
vt 0.1250000000 0.4375000000
vt 0.1250000000 0.5625000000
vt 0.8750000000 0.5625000000
vt 0.8750000000 0.4375000000
vt 0.1250000000 0.4375000000
vt 0.1250000000 0.5625000000
vt 0.8750000000 0.5625000000
vt 0.8750000000 0.4375000000
vt 0.1250000000 0.4375000000
vt 0.1250000000 0.8750000000
vt 0.8750000000 0.8750000000
vt 0.8750000000 0.1250000000
vt 0.1250000000 0.1250000000
vt 0.1250000000 0.8750000000
vt 0.8750000000 0.8750000000
vt 0.8750000000 0.1250000000
vt 0.1250000000 0.1250000000
vn 0 0 -1
vn 1 0 0
vn 0 0 1
vn -1 0 0
vn 0 1 0
vn 0 -1 0
usemtl node_stone
f 4/4/1 7/3/1 5/2/1 2/1/1
f 3/8/2 4/7/2 2/6/2 1/5/2
f 8/12/3 3/11/3 1/10/3 6/9/3
f 7/16/4 8/15/4 6/14/4 5/13/4
f 6/20/5 1/19/5 2/18/5 5/17/5
f 7/24/6 4/23/6 3/22/6 8/21/6
o Star socket
v 0.8125 0.1875 0.8125
v 0.8125 0.1875 0.1875
v 0.8125 0.125 0.8125
v 0.8125 0.125 0.1875
v 0.1875 0.1875 0.1875
v 0.1875 0.1875 0.8125
v 0.1875 0.125 0.1875
v 0.1875 0.125 0.8125
vt 0.1875000000 0.5312500000
vt 0.8125000000 0.5312500000
vt 0.8125000000 0.4687500000
vt 0.1875000000 0.4687500000
vt 0.1875000000 0.5312500000
vt 0.8125000000 0.5312500000
vt 0.8125000000 0.4687500000
vt 0.1875000000 0.4687500000
vt 0.1875000000 0.5312500000
vt 0.8125000000 0.5312500000
vt 0.8125000000 0.4687500000
vt 0.1875000000 0.4687500000
vt 0.1875000000 0.5312500000
vt 0.8125000000 0.5312500000
vt 0.8125000000 0.4687500000
vt 0.1875000000 0.4687500000
vt 0.1875000000 0.8125000000
vt 0.8125000000 0.8125000000
vt 0.8125000000 0.1875000000
vt 0.1875000000 0.1875000000
vt 0.1875000000 0.8125000000
vt 0.8125000000 0.8125000000
vt 0.8125000000 0.1875000000
vt 0.1875000000 0.1875000000
vn 0 0 -1
vn 1 0 0
vn 0 0 1
vn -1 0 0
vn 0 1 0
vn 0 -1 0
usemtl node_trim
f 12/28/7 15/27/7 13/26/7 10/25/7
f 11/32/8 12/31/8 10/30/8 9/29/8
f 16/36/9 11/35/9 9/34/9 14/33/9
f 15/40/10 16/39/10 14/38/10 13/37/10
f 14/44/11 9/43/11 10/42/11 13/41/11
f 15/48/12 12/47/12 11/46/12 16/45/12
o Star heart
v 0.6590990257669732 0.1875 0.7215990257669732
v 0.6590990257669732 0.625 0.7215990257669732
v 0.3409009742330268 0.1875 0.7215990257669732
v 0.3409009742330268 0.625 0.7215990257669732
v 0.3409009742330268 0.1875 0.4034009742330268
v 0.3409009742330268 0.625 0.4034009742330268
v 0.6590990257669731 0.1875 0.4034009742330268
v 0.6590990257669731 0.625 0.4034009742330268
v 0.5 0.9375 0.5625
vt 0 1
vt 1 1
vt 1 0
vt 0 0
vt 0.5 1
vt 1 0
vt 0 0
vt 0 1
vt 1 1
vt 1 0
vt 0 0
vt 0.5 1
vt 1 0
vt 0 0
vt 0 1
vt 1 1
vt 1 0
vt 0 0
vt 0.5 1
vt 1 0
vt 0 0
vt 0 1
vt 1 1
vt 1 0
vt 0 0
vt 0.5 1
vt 1 0
vt 0 0
vt 0 1
vt 1 1
vt 1 0
vt 0 0
vn 0 0 1
vn 0 0.4537014226782627 0.8911537572493988
vn -1 0 0
vn -0.8911537572493988 0.4537014226782627 0
vn 0 0 -1
vn 0 0.45370142267826274 -0.8911537572493989
vn 1 0 -3.4890943526306114e-16
vn 0.8911537572493989 0.4537014226782625 -3.109319541744428e-16
vn 0 -1 0
usemtl node_crystal
f 18/49/13 20/50/13 19/51/13 17/52/13
f 25/53/14 20/54/14 18/55/14
f 20/56/15 22/57/15 21/58/15 19/59/15
f 25/60/16 22/61/16 20/62/16
f 22/63/17 24/64/17 23/65/17 21/66/17
f 25/67/18 24/68/18 22/69/18
f 24/70/19 18/71/19 17/72/19 23/73/19
f 25/74/20 18/75/20 24/76/20
f 17/77/21 19/78/21 21/79/21 23/80/21
o Left star point
v 0.36963834764831843 0.1875 0.46338834764831843
v 0.36963834764831843 0.40625 0.46338834764831843
v 0.19286165235168157 0.1875 0.46338834764831843
v 0.19286165235168157 0.40625 0.46338834764831843
v 0.19286165235168154 0.1875 0.28661165235168157
v 0.19286165235168154 0.40625 0.28661165235168157
v 0.36963834764831843 0.1875 0.2866116523516815
v 0.36963834764831843 0.40625 0.2866116523516815
v 0.28125 0.5625 0.375
vt 0 1
vt 1 1
vt 1 0
vt 0 0
vt 0.5 1
vt 1 0
vt 0 0
vt 0 1
vt 1 1
vt 1 0
vt 0 0
vt 0.5 1
vt 1 0
vt 0 0
vt 0 1
vt 1 1
vt 1 0
vt 0 0
vt 0.5 1
vt 1 0
vt 0 0
vt 0 1
vt 1 1
vt 1 0
vt 0 0
vt 0.5 1
vt 1 0
vt 0 0
vt 0 1
vt 1 1
vt 1 0
vt 0 0
vn 0 0 1
vn 0 0.4923659639173309 0.8703882797784892
vn -1 0 1.5700924586837754e-16
vn -0.8703882797784893 0.492365963917331 1.6399080890483398e-16
vn -3.1401849173675503e-16 0 -1
vn -2.733180148413899e-16 0.492365963917331 -0.8703882797784892
vn 1 0 0
vn 0.8703882797784894 0.4923659639173309 0
vn 0 -1 0
usemtl node_crystal
f 27/81/22 29/82/22 28/83/22 26/84/22
f 34/85/23 29/86/23 27/87/23
f 29/88/24 31/89/24 30/90/24 28/91/24
f 34/92/25 31/93/25 29/94/25
f 31/95/26 33/96/26 32/97/26 30/98/26
f 34/99/27 33/100/27 31/101/27
f 33/102/28 27/103/28 26/104/28 32/105/28
f 34/106/29 27/107/29 33/108/29
f 26/109/30 28/110/30 30/111/30 32/112/30
o Right star point
v 0.8071383476483185 0.1875 0.46338834764831843
v 0.8071383476483185 0.5 0.46338834764831843
v 0.6303616523516815 0.1875 0.46338834764831843
v 0.6303616523516815 0.5 0.46338834764831843
v 0.6303616523516815 0.1875 0.28661165235168157
v 0.6303616523516815 0.5 0.28661165235168157
v 0.8071383476483184 0.1875 0.2866116523516815
v 0.8071383476483184 0.5 0.2866116523516815
v 0.71875 0.6875 0.375
vt 0 1
vt 1 1
vt 1 0
vt 0 0
vt 0.5 1
vt 1 0
vt 0 0
vt 0 1
vt 1 1
vt 1 0
vt 0 0
vt 0.5 1
vt 1 0
vt 0 0
vt 0 1
vt 1 1
vt 1 0
vt 0 0
vt 0.5 1
vt 1 0
vt 0 0
vt 0 1
vt 1 1
vt 1 0
vt 0 0
vt 0.5 1
vt 1 0
vt 0 0
vt 0 1
vt 1 1
vt 1 0
vt 0 0
vn 0 0 1
vn 0 0.4264014327112209 0.904534033733291
vn -1 0 0
vn -0.9045340337332908 0.42640143271122105 0
vn -3.1401849173675503e-16 0 -1
vn -2.8404041299749114e-16 0.42640143271122105 -0.904534033733291
vn 1 0 -6.280369834735099e-16
vn 0.904534033733291 0.426401432711221 -5.680808259949821e-16
vn 0 -1 0
usemtl node_crystal
f 36/113/31 38/114/31 37/115/31 35/116/31
f 43/117/32 38/118/32 36/119/32
f 38/120/33 40/121/33 39/122/33 37/123/33
f 43/124/34 40/125/34 38/126/34
f 40/127/35 42/128/35 41/129/35 39/130/35
f 43/131/36 42/132/36 40/133/36
f 42/134/37 36/135/37 35/136/37 41/137/37
f 43/138/38 36/139/38 42/140/38
f 35/141/39 37/142/39 39/143/39 41/144/39
o Channel inlay
v 0.5625 0.09375 0.140625
v 0.5625 0.09375 0.12437500000000001
v 0.5625 0.03125 0.140625
v 0.5625 0.03125 0.12437500000000001
v 0.4375 0.09375 0.12437500000000001
v 0.4375 0.09375 0.140625
v 0.4375 0.03125 0.12437500000000001
v 0.4375 0.03125 0.140625
vt 0.4375000000 0.5312500000
vt 0.5625000000 0.5312500000
vt 0.5625000000 0.4687500000
vt 0.4375000000 0.4687500000
vt 0.4918750000 0.5312500000
vt 0.5081250000 0.5312500000
vt 0.5081250000 0.4687500000
vt 0.4918750000 0.4687500000
vt 0.4375000000 0.5312500000
vt 0.5625000000 0.5312500000
vt 0.5625000000 0.4687500000
vt 0.4375000000 0.4687500000
vt 0.4918750000 0.5312500000
vt 0.5081250000 0.5312500000
vt 0.5081250000 0.4687500000
vt 0.4918750000 0.4687500000
vt 0.4375000000 0.5081250000
vt 0.5625000000 0.5081250000
vt 0.5625000000 0.4918750000
vt 0.4375000000 0.4918750000
vt 0.4375000000 0.5081250000
vt 0.5625000000 0.5081250000
vt 0.5625000000 0.4918750000
vt 0.4375000000 0.4918750000
vn 0 0 -1
vn 1 0 0
vn 0 0 1
vn -1 0 0
vn 0 1 0
vn 0 -1 0
usemtl node_channel
f 47/148/40 50/147/40 48/146/40 45/145/40
f 46/152/41 47/151/41 45/150/41 44/149/41
f 51/156/42 46/155/42 44/154/42 49/153/42
f 50/160/43 51/159/43 49/158/43 48/157/43
f 49/164/44 44/163/44 45/162/44 48/161/44
f 50/168/45 47/167/45 46/166/45 51/165/45
