# Made in Blockbench 5.1.6
mtllib storage_nexus.mtl

o Obsidian mineral plinth
v 0.875 0.125 0.875
v 0.875 0.125 0.125
v 0.875 0 0.875
v 0.875 0 0.125
v 0.125 0.125 0.125
v 0.125 0.125 0.875
v 0.125 0 0.125
v 0.125 0 0.875
vt 0.1250000000 0.5625000000
vt 0.8750000000 0.5625000000
vt 0.8750000000 0.4375000000
vt 0.1250000000 0.4375000000
vt 0.1250000000 0.5625000000
vt 0.8750000000 0.5625000000
vt 0.8750000000 0.4375000000
vt 0.1250000000 0.4375000000
vt 0.1250000000 0.5625000000
vt 0.8750000000 0.5625000000
vt 0.8750000000 0.4375000000
vt 0.1250000000 0.4375000000
vt 0.1250000000 0.5625000000
vt 0.8750000000 0.5625000000
vt 0.8750000000 0.4375000000
vt 0.1250000000 0.4375000000
vt 0.1250000000 0.8750000000
vt 0.8750000000 0.8750000000
vt 0.8750000000 0.1250000000
vt 0.1250000000 0.1250000000
vt 0.1250000000 0.8750000000
vt 0.8750000000 0.8750000000
vt 0.8750000000 0.1250000000
vt 0.1250000000 0.1250000000
vn 0 0 -1
vn 1 0 0
vn 0 0 1
vn -1 0 0
vn 0 1 0
vn 0 -1 0
usemtl node_stone
f 4/4/1 7/3/1 5/2/1 2/1/1
f 3/8/2 4/7/2 2/6/2 1/5/2
f 8/12/3 3/11/3 1/10/3 6/9/3
f 7/16/4 8/15/4 6/14/4 5/13/4
f 6/20/5 1/19/5 2/18/5 5/17/5
f 7/24/6 4/23/6 3/22/6 8/21/6
o Violet socket
v 0.8125 0.1875 0.8125
v 0.8125 0.1875 0.1875
v 0.8125 0.125 0.8125
v 0.8125 0.125 0.1875
v 0.1875 0.1875 0.1875
v 0.1875 0.1875 0.8125
v 0.1875 0.125 0.1875
v 0.1875 0.125 0.8125
vt 0.1875000000 0.5312500000
vt 0.8125000000 0.5312500000
vt 0.8125000000 0.4687500000
vt 0.1875000000 0.4687500000
vt 0.1875000000 0.5312500000
vt 0.8125000000 0.5312500000
vt 0.8125000000 0.4687500000
vt 0.1875000000 0.4687500000
vt 0.1875000000 0.5312500000
vt 0.8125000000 0.5312500000
vt 0.8125000000 0.4687500000
vt 0.1875000000 0.4687500000
vt 0.1875000000 0.5312500000
vt 0.8125000000 0.5312500000
vt 0.8125000000 0.4687500000
vt 0.1875000000 0.4687500000
vt 0.1875000000 0.8125000000
vt 0.8125000000 0.8125000000
vt 0.8125000000 0.1875000000
vt 0.1875000000 0.1875000000
vt 0.1875000000 0.8125000000
vt 0.8125000000 0.8125000000
vt 0.8125000000 0.1875000000
vt 0.1875000000 0.1875000000
vn 0 0 -1
vn 1 0 0
vn 0 0 1
vn -1 0 0
vn 0 1 0
vn 0 -1 0
usemtl node_trim
f 12/28/7 15/27/7 13/26/7 10/25/7
f 11/32/8 12/31/8 10/30/8 9/29/8
f 16/36/9 11/35/9 9/34/9 14/33/9
f 15/40/10 16/39/10 14/38/10 13/37/10
f 14/44/11 9/43/11 10/42/11 13/41/11
f 15/48/12 12/47/12 11/46/12 16/45/12
o Nexus heart
v 0.6767766952966369 0.1875 0.6767766952966369
v 0.6767766952966369 0.625 0.6767766952966369
v 0.32322330470336313 0.1875 0.6767766952966369
v 0.32322330470336313 0.625 0.6767766952966369
v 0.3232233047033631 0.1875 0.32322330470336313
v 0.3232233047033631 0.625 0.32322330470336313
v 0.6767766952966369 0.1875 0.3232233047033631
v 0.6767766952966369 0.625 0.3232233047033631
v 0.5 0.9375 0.5
vt 0 1
vt 1 1
vt 1 0
vt 0 0
vt 0.5 1
vt 1 0
vt 0 0
vt 0 1
vt 1 1
vt 1 0
vt 0 0
vt 0.5 1
vt 1 0
vt 0 0
vt 0 1
vt 1 1
vt 1 0
vt 0 0
vt 0.5 1
vt 1 0
vt 0 0
vt 0 1
vt 1 1
vt 1 0
vt 0 0
vt 0.5 1
vt 1 0
vt 0 0
vt 0 1
vt 1 1
vt 1 0
vt 0 0
vn 0 0 1
vn 0 0.4923659639173309 0.8703882797784892
vn -1 0 1.5700924586837754e-16
vn -0.8703882797784893 0.492365963917331 1.6399080890483398e-16
vn -1.5700924586837752e-16 0 -1
vn -1.6399080890483395e-16 0.4923659639173309 -0.8703882797784892
vn 1 0 0
vn 0.8703882797784892 0.4923659639173309 0
vn 0 -1 0
usemtl node_crystal
f 18/49/13 20/50/13 19/51/13 17/52/13
f 25/53/14 20/54/14 18/55/14
f 20/56/15 22/57/15 21/58/15 19/59/15
f 25/60/16 22/61/16 20/62/16
f 22/63/17 24/64/17 23/65/17 21/66/17
f 25/67/18 24/68/18 22/69/18
f 24/70/19 18/71/19 17/72/19 23/73/19
f 25/74/20 18/75/20 24/76/20
f 17/77/21 19/78/21 21/79/21 23/80/21
o Crown point
v 0.3229203868098627 0.125 0.3229203868098627
v 0.3229203868098627 0.34375 0.3229203868098627
v 0.1770796131901373 0.125 0.3229203868098627
v 0.1770796131901373 0.34375 0.3229203868098627
v 0.17707961319013726 0.125 0.1770796131901373
v 0.17707961319013726 0.34375 0.1770796131901373
v 0.3229203868098627 0.125 0.17707961319013726
v 0.3229203868098627 0.34375 0.17707961319013726
v 0.25 0.5 0.25
vt 0 1
vt 1 1
vt 1 0
vt 0 0
vt 0.5 1
vt 1 0
vt 0 0
vt 0 1
vt 1 1
vt 1 0
vt 0 0
vt 0.5 1
vt 1 0
vt 0 0
vt 0 1
vt 1 1
vt 1 0
vt 0 0
vt 0.5 1
vt 1 0
vt 0 0
vt 0 1
vt 1 1
vt 1 0
vt 0 0
vt 0.5 1
vt 1 0
vt 0 0
vt 0 1
vt 1 1
vt 1 0
vt 0 0
vn 0 0 1
vn 0 0.4229031819817245 0.906174872014079
vn -1 0 1.9031423741621521e-16
vn -0.9061748720140789 0.4229031819817247 2.0694957567971502e-16
vn -1.9031423741621516e-16 0 -1
vn -2.06949575679715e-16 0.4229031819817247 -0.9061748720140789
vn 1 0 0
vn 0.9061748720140791 0.42290318198172455 0
vn 0 -1 0
usemtl node_crystal
f 27/81/22 29/82/22 28/83/22 26/84/22
f 34/85/23 29/86/23 27/87/23
f 29/88/24 31/89/24 30/90/24 28/91/24
f 34/92/25 31/93/25 29/94/25
f 31/95/26 33/96/26 32/97/26 30/98/26
f 34/99/27 33/100/27 31/101/27
f 33/102/28 27/103/28 26/104/28 32/105/28
f 34/106/29 27/107/29 33/108/29
f 26/109/30 28/110/30 30/111/30 32/112/30
o Crown point
v 0.8229203868098627 0.125 0.3229203868098627
v 0.8229203868098627 0.34375 0.3229203868098627
v 0.6770796131901373 0.125 0.3229203868098627
v 0.6770796131901373 0.34375 0.3229203868098627
v 0.6770796131901373 0.125 0.1770796131901373
v 0.6770796131901373 0.34375 0.1770796131901373
v 0.8229203868098627 0.125 0.17707961319013726
v 0.8229203868098627 0.34375 0.17707961319013726
v 0.75 0.5 0.25
vt 0 1
vt 1 1
vt 1 0
vt 0 0
vt 0.5 1
vt 1 0
vt 0 0
vt 0 1
vt 1 1
vt 1 0
vt 0 0
vt 0.5 1
vt 1 0
vt 0 0
vt 0 1
vt 1 1
vt 1 0
vt 0 0
vt 0.5 1
vt 1 0
vt 0 0
vt 0 1
vt 1 1
vt 1 0
vt 0 0
vt 0.5 1
vt 1 0
vt 0 0
vt 0 1
vt 1 1
vt 1 0
vt 0 0
vn 0 0 1
vn 0 0.4229031819817245 0.906174872014079
vn -1 0 0
vn -0.906174872014079 0.4229031819817245 0
vn -1.9031423741621524e-16 0 -1
vn -2.069495756797151e-16 0.4229031819817248 -0.9061748720140791
vn 1 0 0
vn 0.9061748720140791 0.42290318198172455 0
vn 0 -1 0
usemtl node_crystal
f 36/113/31 38/114/31 37/115/31 35/116/31
f 43/117/32 38/118/32 36/119/32
f 38/120/33 40/121/33 39/122/33 37/123/33
f 43/124/34 40/125/34 38/126/34
f 40/127/35 42/128/35 41/129/35 39/130/35
f 43/131/36 42/132/36 40/133/36
f 42/134/37 36/135/37 35/136/37 41/137/37
f 43/138/38 36/139/38 42/140/38
f 35/141/39 37/142/39 39/143/39 41/144/39
o Crown point
v 0.3229203868098627 0.125 0.8229203868098627
v 0.3229203868098627 0.34375 0.8229203868098627
v 0.1770796131901373 0.125 0.8229203868098627
v 0.1770796131901373 0.34375 0.8229203868098627
v 0.17707961319013726 0.125 0.6770796131901373
v 0.17707961319013726 0.34375 0.6770796131901373
v 0.3229203868098627 0.125 0.6770796131901373
v 0.3229203868098627 0.34375 0.6770796131901373
v 0.25 0.5 0.75
vt 0 1
vt 1 1
vt 1 0
vt 0 0
vt 0.5 1
vt 1 0
vt 0 0
vt 0 1
vt 1 1
vt 1 0
vt 0 0
vt 0.5 1
vt 1 0
vt 0 0
vt 0 1
vt 1 1
vt 1 0
vt 0 0
vt 0.5 1
vt 1 0
vt 0 0
vt 0 1
vt 1 1
vt 1 0
vt 0 0
vt 0.5 1
vt 1 0
vt 0 0
vt 0 1
vt 1 1
vt 1 0
vt 0 0
vn 0 0 1
vn 0 0.4229031819817245 0.906174872014079
vn -1 0 1.9031423741621524e-16
vn -0.9061748720140791 0.4229031819817248 2.069495756797151e-16
vn 0 0 -1
vn 0 0.42290318198172455 -0.9061748720140791
vn 1 0 0
vn 0.906174872014079 0.4229031819817245 0
vn 0 -1 0
usemtl node_crystal
f 45/145/40 47/146/40 46/147/40 44/148/40
f 52/149/41 47/150/41 45/151/41
f 47/152/42 49/153/42 48/154/42 46/155/42
f 52/156/43 49/157/43 47/158/43
f 49/159/44 51/160/44 50/161/44 48/162/44
f 52/163/45 51/164/45 49/165/45
f 51/166/46 45/167/46 44/168/46 50/169/46
f 52/170/47 45/171/47 51/172/47
f 44/173/48 46/174/48 48/175/48 50/176/48
o Crown point
v 0.8229203868098627 0.125 0.8229203868098627
v 0.8229203868098627 0.34375 0.8229203868098627
v 0.6770796131901373 0.125 0.8229203868098627
v 0.6770796131901373 0.34375 0.8229203868098627
v 0.6770796131901373 0.125 0.6770796131901373
v 0.6770796131901373 0.34375 0.6770796131901373
v 0.8229203868098627 0.125 0.6770796131901373
v 0.8229203868098627 0.34375 0.6770796131901373
v 0.75 0.5 0.75
vt 0 1
vt 1 1
vt 1 0
vt 0 0
vt 0.5 1
vt 1 0
vt 0 0
vt 0 1
vt 1 1
vt 1 0
vt 0 0
vt 0.5 1
vt 1 0
vt 0 0
vt 0 1
vt 1 1
vt 1 0
vt 0 0
vt 0.5 1
vt 1 0
vt 0 0
vt 0 1
vt 1 1
vt 1 0
vt 0 0
vt 0.5 1
vt 1 0
vt 0 0
vt 0 1
vt 1 1
vt 1 0
vt 0 0
vn 0 0 1
vn 0 0.4229031819817245 0.906174872014079
vn -1 0 0
vn -0.906174872014079 0.4229031819817245 0
vn 0 0 -1
vn 0 0.4229031819817245 -0.906174872014079
vn 1 0 0
vn 0.906174872014079 0.4229031819817245 0
vn 0 -1 0
usemtl node_crystal
f 54/177/49 56/178/49 55/179/49 53/180/49
f 61/181/50 56/182/50 54/183/50
f 56/184/51 58/185/51 57/186/51 55/187/51
f 61/188/52 58/189/52 56/190/52
f 58/191/53 60/192/53 59/193/53 57/194/53
f 61/195/54 60/196/54 58/197/54
f 60/198/55 54/199/55 53/200/55 59/201/55
f 61/202/56 54/203/56 60/204/56
f 53/205/57 55/206/57 57/207/57 59/208/57
o Channel inlay north
v 0.5625 0.09375 0.140625
v 0.5625 0.09375 0.12437500000000001
v 0.5625 0.03125 0.140625
v 0.5625 0.03125 0.12437500000000001
v 0.4375 0.09375 0.12437500000000001
v 0.4375 0.09375 0.140625
v 0.4375 0.03125 0.12437500000000001
v 0.4375 0.03125 0.140625
vt 0.4375000000 0.5312500000
vt 0.5625000000 0.5312500000
vt 0.5625000000 0.4687500000
vt 0.4375000000 0.4687500000
vt 0.4918750000 0.5312500000
vt 0.5081250000 0.5312500000
vt 0.5081250000 0.4687500000
vt 0.4918750000 0.4687500000
vt 0.4375000000 0.5312500000
vt 0.5625000000 0.5312500000
vt 0.5625000000 0.4687500000
vt 0.4375000000 0.4687500000
vt 0.4918750000 0.5312500000
vt 0.5081250000 0.5312500000
vt 0.5081250000 0.4687500000
vt 0.4918750000 0.4687500000
vt 0.4375000000 0.5081250000
vt 0.5625000000 0.5081250000
vt 0.5625000000 0.4918750000
vt 0.4375000000 0.4918750000
vt 0.4375000000 0.5081250000
vt 0.5625000000 0.5081250000
vt 0.5625000000 0.4918750000
vt 0.4375000000 0.4918750000
vn 0 0 -1
vn 1 0 0
vn 0 0 1
vn -1 0 0
vn 0 1 0
vn 0 -1 0
usemtl node_channel
f 65/212/58 68/211/58 66/210/58 63/209/58
f 64/216/59 65/215/59 63/214/59 62/213/59
f 69/220/60 64/219/60 62/218/60 67/217/60
f 68/224/61 69/223/61 67/222/61 66/221/61
f 67/228/62 62/227/62 63/226/62 66/225/62
f 68/232/63 65/231/63 64/230/63 69/229/63
o Channel inlay south
v 0.5625 0.09375 0.8756249999999999
v 0.5625 0.09375 0.859375
v 0.5625 0.03125 0.8756249999999999
v 0.5625 0.03125 0.859375
v 0.4375 0.09375 0.859375
v 0.4375 0.09375 0.8756249999999999
v 0.4375 0.03125 0.859375
v 0.4375 0.03125 0.8756249999999999
vt 0.4375000000 0.5312500000
vt 0.5625000000 0.5312500000
vt 0.5625000000 0.4687500000
vt 0.4375000000 0.4687500000
vt 0.4918750000 0.5312500000
vt 0.5081250000 0.5312500000
vt 0.5081250000 0.4687500000
vt 0.4918750000 0.4687500000
vt 0.4375000000 0.5312500000
vt 0.5625000000 0.5312500000
vt 0.5625000000 0.4687500000
vt 0.4375000000 0.4687500000
vt 0.4918750000 0.5312500000
vt 0.5081250000 0.5312500000
vt 0.5081250000 0.4687500000
vt 0.4918750000 0.4687500000
vt 0.4375000000 0.5081250000
vt 0.5625000000 0.5081250000
vt 0.5625000000 0.4918750000
vt 0.4375000000 0.4918750000
vt 0.4375000000 0.5081250000
vt 0.5625000000 0.5081250000
vt 0.5625000000 0.4918750000
vt 0.4375000000 0.4918750000
vn 0 0 -1
vn 1 0 0
vn 0 0 1
vn -1 0 0
vn 0 1 0
vn 0 -1 0
usemtl node_channel
f 73/236/64 76/235/64 74/234/64 71/233/64
f 72/240/65 73/239/65 71/238/65 70/237/65
f 77/244/66 72/243/66 70/242/66 75/241/66
f 76/248/67 77/247/67 75/246/67 74/245/67
f 75/252/68 70/251/68 71/250/68 74/249/68
f 76/256/69 73/255/69 72/254/69 77/253/69
