# Made in Blockbench 5.1.6
mtllib gateway_crystal.mtl

o Gateway foot
v 0.875 0.125 0.75
v 0.875 0.125 0.25
v 0.875 0 0.75
v 0.875 0 0.25
v 0.125 0.125 0.25
v 0.125 0.125 0.75
v 0.125 0 0.25
v 0.125 0 0.75
vt 0.1250000000 0.5625000000
vt 0.8750000000 0.5625000000
vt 0.8750000000 0.4375000000
vt 0.1250000000 0.4375000000
vt 0.2500000000 0.5625000000
vt 0.7500000000 0.5625000000
vt 0.7500000000 0.4375000000
vt 0.2500000000 0.4375000000
vt 0.1250000000 0.5625000000
vt 0.8750000000 0.5625000000
vt 0.8750000000 0.4375000000
vt 0.1250000000 0.4375000000
vt 0.2500000000 0.5625000000
vt 0.7500000000 0.5625000000
vt 0.7500000000 0.4375000000
vt 0.2500000000 0.4375000000
vt 0.1250000000 0.7500000000
vt 0.8750000000 0.7500000000
vt 0.8750000000 0.2500000000
vt 0.1250000000 0.2500000000
vt 0.1250000000 0.7500000000
vt 0.8750000000 0.7500000000
vt 0.8750000000 0.2500000000
vt 0.1250000000 0.2500000000
vn 0 0 -1
vn 1 0 0
vn 0 0 1
vn -1 0 0
vn 0 1 0
vn 0 -1 0
usemtl node_stone
f 4/4/1 7/3/1 5/2/1 2/1/1
f 3/8/2 4/7/2 2/6/2 1/5/2
f 8/12/3 3/11/3 1/10/3 6/9/3
f 7/16/4 8/15/4 6/14/4 5/13/4
f 6/20/5 1/19/5 2/18/5 5/17/5
f 7/24/6 4/23/6 3/22/6 8/21/6
o Left anchor
v 0.40625 0.1875 0.6875
v 0.40625 0.1875 0.3125
v 0.40625 0.125 0.6875
v 0.40625 0.125 0.3125
v 0.15625 0.1875 0.3125
v 0.15625 0.1875 0.6875
v 0.15625 0.125 0.3125
v 0.15625 0.125 0.6875
vt 0.3750000000 0.5312500000
vt 0.6250000000 0.5312500000
vt 0.6250000000 0.4687500000
vt 0.3750000000 0.4687500000
vt 0.3125000000 0.5312500000
vt 0.6875000000 0.5312500000
vt 0.6875000000 0.4687500000
vt 0.3125000000 0.4687500000
vt 0.3750000000 0.5312500000
vt 0.6250000000 0.5312500000
vt 0.6250000000 0.4687500000
vt 0.3750000000 0.4687500000
vt 0.3125000000 0.5312500000
vt 0.6875000000 0.5312500000
vt 0.6875000000 0.4687500000
vt 0.3125000000 0.4687500000
vt 0.3750000000 0.6875000000
vt 0.6250000000 0.6875000000
vt 0.6250000000 0.3125000000
vt 0.3750000000 0.3125000000
vt 0.3750000000 0.6875000000
vt 0.6250000000 0.6875000000
vt 0.6250000000 0.3125000000
vt 0.3750000000 0.3125000000
vn 0 0 -1
vn 1 0 0
vn 0 0 1
vn -1 0 0
vn 0 1 0
vn 0 -1 0
usemtl node_trim
f 12/28/7 15/27/7 13/26/7 10/25/7
f 11/32/8 12/31/8 10/30/8 9/29/8
f 16/36/9 11/35/9 9/34/9 14/33/9
f 15/40/10 16/39/10 14/38/10 13/37/10
f 14/44/11 9/43/11 10/42/11 13/41/11
f 15/48/12 12/47/12 11/46/12 16/45/12
o Right anchor
v 0.84375 0.1875 0.6875
v 0.84375 0.1875 0.3125
v 0.84375 0.125 0.6875
v 0.84375 0.125 0.3125
v 0.59375 0.1875 0.3125
v 0.59375 0.1875 0.6875
v 0.59375 0.125 0.3125
v 0.59375 0.125 0.6875
vt 0.3750000000 0.5312500000
vt 0.6250000000 0.5312500000
vt 0.6250000000 0.4687500000
vt 0.3750000000 0.4687500000
vt 0.3125000000 0.5312500000
vt 0.6875000000 0.5312500000
vt 0.6875000000 0.4687500000
vt 0.3125000000 0.4687500000
vt 0.3750000000 0.5312500000
vt 0.6250000000 0.5312500000
vt 0.6250000000 0.4687500000
vt 0.3750000000 0.4687500000
vt 0.3125000000 0.5312500000
vt 0.6875000000 0.5312500000
vt 0.6875000000 0.4687500000
vt 0.3125000000 0.4687500000
vt 0.3750000000 0.6875000000
vt 0.6250000000 0.6875000000
vt 0.6250000000 0.3125000000
vt 0.3750000000 0.3125000000
vt 0.3750000000 0.6875000000
vt 0.6250000000 0.6875000000
vt 0.6250000000 0.3125000000
vt 0.3750000000 0.3125000000
vn 0 0 -1
vn 1 0 0
vn 0 0 1
vn -1 0 0
vn 0 1 0
vn 0 -1 0
usemtl node_trim
f 20/52/13 23/51/13 21/50/13 18/49/13
f 19/56/14 20/55/14 18/54/14 17/53/14
f 24/60/15 19/59/15 17/58/15 22/57/15
f 23/64/16 24/63/16 22/62/16 21/61/16
f 22/68/17 17/67/17 18/66/17 21/65/17
f 23/72/18 20/71/18 19/70/18 24/69/18
o Left tall point
v 0.39615485194281397 0.1875 0.614904851942814
v 0.39615485194281397 0.65625 0.614904851942814
v 0.16634514805718603 0.1875 0.614904851942814
v 0.16634514805718603 0.65625 0.614904851942814
v 0.166345148057186 0.1875 0.38509514805718603
v 0.166345148057186 0.65625 0.38509514805718603
v 0.39615485194281397 0.1875 0.38509514805718603
v 0.39615485194281397 0.65625 0.38509514805718603
v 0.28125 0.875 0.5
vt 0 1
vt 1 1
vt 1 0
vt 0 0
vt 0.5 1
vt 1 0
vt 0 0
vt 0 1
vt 1 1
vt 1 0
vt 0 0
vt 0.5 1
vt 1 0
vt 0 0
vt 0 1
vt 1 1
vt 1 0
vt 0 0
vt 0.5 1
vt 1 0
vt 0 0
vt 0 1
vt 1 1
vt 1 0
vt 0 0
vt 0.5 1
vt 1 0
vt 0 0
vt 0 1
vt 1 1
vt 1 0
vt 0 0
vn 0 0 1
vn 0 0.46502774083282594 0.8852961087997158
vn -1 0 1.2077634297567502e-16
vn -0.8852961087997158 0.46502774083282594 1.2219751596734283e-16
vn 0 0 -1
vn 0 0.4650277408328259 -0.8852961087997158
vn 1 0 0
vn 0.8852961087997158 0.46502774083282594 0
vn 0 -1 0
usemtl node_crystal
f 26/73/19 28/74/19 27/75/19 25/76/19
f 33/77/20 28/78/20 26/79/20
f 28/80/21 30/81/21 29/82/21 27/83/21
f 33/84/22 30/85/22 28/86/22
f 30/87/23 32/88/23 31/89/23 29/90/23
f 33/91/24 32/92/24 30/93/24
f 32/94/25 26/95/25 25/96/25 31/97/25
f 33/98/26 26/99/26 32/100/26
f 25/101/27 27/102/27 29/103/27 31/104/27
o Right tall point
v 0.833654851942814 0.1875 0.614904851942814
v 0.833654851942814 0.65625 0.614904851942814
v 0.603845148057186 0.1875 0.614904851942814
v 0.603845148057186 0.65625 0.614904851942814
v 0.603845148057186 0.1875 0.38509514805718603
v 0.603845148057186 0.65625 0.38509514805718603
v 0.833654851942814 0.1875 0.38509514805718603
v 0.833654851942814 0.65625 0.38509514805718603
v 0.71875 0.875 0.5
vt 0 1
vt 1 1
vt 1 0
vt 0 0
vt 0.5 1
vt 1 0
vt 0 0
vt 0 1
vt 1 1
vt 1 0
vt 0 0
vt 0.5 1
vt 1 0
vt 0 0
vt 0 1
vt 1 1
vt 1 0
vt 0 0
vt 0.5 1
vt 1 0
vt 0 0
vt 0 1
vt 1 1
vt 1 0
vt 0 0
vt 0.5 1
vt 1 0
vt 0 0
vt 0 1
vt 1 1
vt 1 0
vt 0 0
vn 0 0 1
vn 0 0.46502774083282594 0.8852961087997158
vn -1 0 0
vn -0.8852961087997158 0.46502774083282594 0
vn 0 0 -1
vn 0 0.46502774083282594 -0.8852961087997158
vn 1 0 0
vn 0.8852961087997158 0.46502774083282594 0
vn 0 -1 0
usemtl node_crystal
f 35/105/28 37/106/28 36/107/28 34/108/28
f 42/109/29 37/110/29 35/111/29
f 37/112/30 39/113/30 38/114/30 36/115/30
f 42/116/31 39/117/31 37/118/31
f 39/119/32 41/120/32 40/121/32 38/122/32
f 42/123/33 41/124/33 39/125/33
f 41/126/34 35/127/34 34/128/34 40/129/34
f 42/130/35 35/131/35 41/132/35
f 34/133/36 36/134/36 38/135/36 40/136/36
o Suspended linking point
v 0.5662912607362388 0.5 0.5662912607362388
v 0.5662912607362388 0.625 0.5662912607362388
v 0.4337087392637612 0.5 0.5662912607362388
v 0.4337087392637612 0.625 0.5662912607362388
v 0.4337087392637612 0.5 0.4337087392637612
v 0.4337087392637612 0.625 0.4337087392637612
v 0.5662912607362388 0.5 0.4337087392637612
v 0.5662912607362388 0.625 0.4337087392637612
v 0.5 0.78125 0.5
vt 0 1
vt 1 1
vt 1 0
vt 0 0
vt 0.5 1
vt 1 0
vt 0 0
vt 0 1
vt 1 1
vt 1 0
vt 0 0
vt 0.5 1
vt 1 0
vt 0 0
vt 0 1
vt 1 1
vt 1 0
vt 0 0
vt 0.5 1
vt 1 0
vt 0 0
vt 0 1
vt 1 1
vt 1 0
vt 0 0
vt 0.5 1
vt 1 0
vt 0 0
vt 0 1
vt 1 1
vt 1 0
vt 0 0
vn 0 0 1
vn 0 0.3905667329424715 0.9205746178983234
vn -1 0 0
vn -0.9205746178983234 0.3905667329424715 0
vn 0 0 -1
vn 0 0.3905667329424715 -0.9205746178983234
vn 1 0 0
vn 0.9205746178983234 0.3905667329424715 0
vn 0 -1 0
usemtl node_crystal
f 44/137/37 46/138/37 45/139/37 43/140/37
f 51/141/38 46/142/38 44/143/38
f 46/144/39 48/145/39 47/146/39 45/147/39
f 51/148/40 48/149/40 46/150/40
f 48/151/41 50/152/41 49/153/41 47/154/41
f 51/155/42 50/156/42 48/157/42
f 50/158/43 44/159/43 43/160/43 49/161/43
f 51/162/44 44/163/44 50/164/44
f 43/165/45 45/166/45 47/167/45 49/168/45
o Channel inlay
v 0.5625 0.09375 0.265625
v 0.5625 0.09375 0.249375
v 0.5625 0.03125 0.265625
v 0.5625 0.03125 0.249375
v 0.4375 0.09375 0.249375
v 0.4375 0.09375 0.265625
v 0.4375 0.03125 0.249375
v 0.4375 0.03125 0.265625
vt 0.4375000000 0.5312500000
vt 0.5625000000 0.5312500000
vt 0.5625000000 0.4687500000
vt 0.4375000000 0.4687500000
vt 0.4918750000 0.5312500000
vt 0.5081250000 0.5312500000
vt 0.5081250000 0.4687500000
vt 0.4918750000 0.4687500000
vt 0.4375000000 0.5312500000
vt 0.5625000000 0.5312500000
vt 0.5625000000 0.4687500000
vt 0.4375000000 0.4687500000
vt 0.4918750000 0.5312500000
vt 0.5081250000 0.5312500000
vt 0.5081250000 0.4687500000
vt 0.4918750000 0.4687500000
vt 0.4375000000 0.5081250000
vt 0.5625000000 0.5081250000
vt 0.5625000000 0.4918750000
vt 0.4375000000 0.4918750000
vt 0.4375000000 0.5081250000
vt 0.5625000000 0.5081250000
vt 0.5625000000 0.4918750000
vt 0.4375000000 0.4918750000
vn 0 0 -1
vn 1 0 0
vn 0 0 1
vn -1 0 0
vn 0 1 0
vn 0 -1 0
usemtl node_channel
f 55/172/46 58/171/46 56/170/46 53/169/46
f 54/176/47 55/175/47 53/174/47 52/173/47
f 59/180/48 54/179/48 52/178/48 57/177/48
f 58/184/49 59/183/49 57/182/49 56/181/49
f 57/188/50 52/187/50 53/186/50 56/185/50
f 58/192/51 55/191/51 54/190/51 59/189/51
