# Made in Blockbench 5.1.6
mtllib power_node.mtl

o Power plinth
v 0.8125 0.125 0.8125
v 0.8125 0.125 0.1875
v 0.8125 0 0.8125
v 0.8125 0 0.1875
v 0.1875 0.125 0.1875
v 0.1875 0.125 0.8125
v 0.1875 0 0.1875
v 0.1875 0 0.8125
vt 0.1875000000 0.5625000000
vt 0.8125000000 0.5625000000
vt 0.8125000000 0.4375000000
vt 0.1875000000 0.4375000000
vt 0.1875000000 0.5625000000
vt 0.8125000000 0.5625000000
vt 0.8125000000 0.4375000000
vt 0.1875000000 0.4375000000
vt 0.1875000000 0.5625000000
vt 0.8125000000 0.5625000000
vt 0.8125000000 0.4375000000
vt 0.1875000000 0.4375000000
vt 0.1875000000 0.5625000000
vt 0.8125000000 0.5625000000
vt 0.8125000000 0.4375000000
vt 0.1875000000 0.4375000000
vt 0.1875000000 0.8125000000
vt 0.8125000000 0.8125000000
vt 0.8125000000 0.1875000000
vt 0.1875000000 0.1875000000
vt 0.1875000000 0.8125000000
vt 0.8125000000 0.8125000000
vt 0.8125000000 0.1875000000
vt 0.1875000000 0.1875000000
vn 0 0 -1
vn 1 0 0
vn 0 0 1
vn -1 0 0
vn 0 1 0
vn 0 -1 0
usemtl node_stone
f 4/4/1 7/3/1 5/2/1 2/1/1
f 3/8/2 4/7/2 2/6/2 1/5/2
f 8/12/3 3/11/3 1/10/3 6/9/3
f 7/16/4 8/15/4 6/14/4 5/13/4
f 6/20/5 1/19/5 2/18/5 5/17/5
f 7/24/6 4/23/6 3/22/6 8/21/6
o Power socket
v 0.6875 0.1875 0.6875
v 0.6875 0.1875 0.3125
v 0.6875 0.125 0.6875
v 0.6875 0.125 0.3125
v 0.3125 0.1875 0.3125
v 0.3125 0.1875 0.6875
v 0.3125 0.125 0.3125
v 0.3125 0.125 0.6875
vt 0.3125000000 0.5312500000
vt 0.6875000000 0.5312500000
vt 0.6875000000 0.4687500000
vt 0.3125000000 0.4687500000
vt 0.3125000000 0.5312500000
vt 0.6875000000 0.5312500000
vt 0.6875000000 0.4687500000
vt 0.3125000000 0.4687500000
vt 0.3125000000 0.5312500000
vt 0.6875000000 0.5312500000
vt 0.6875000000 0.4687500000
vt 0.3125000000 0.4687500000
vt 0.3125000000 0.5312500000
vt 0.6875000000 0.5312500000
vt 0.6875000000 0.4687500000
vt 0.3125000000 0.4687500000
vt 0.3125000000 0.6875000000
vt 0.6875000000 0.6875000000
vt 0.6875000000 0.3125000000
vt 0.3125000000 0.3125000000
vt 0.3125000000 0.6875000000
vt 0.6875000000 0.6875000000
vt 0.6875000000 0.3125000000
vt 0.3125000000 0.3125000000
vn 0 0 -1
vn 1 0 0
vn 0 0 1
vn -1 0 0
vn 0 1 0
vn 0 -1 0
usemtl node_trim
f 12/28/7 15/27/7 13/26/7 10/25/7
f 11/32/8 12/31/8 10/30/8 9/29/8
f 16/36/9 11/35/9 9/34/9 14/33/9
f 15/40/10 16/39/10 14/38/10 13/37/10
f 14/44/11 9/43/11 10/42/11 13/41/11
f 15/48/12 12/47/12 11/46/12 16/45/12
o Suspended double point
v 0.6546796083845573 0.375 0.6546796083845572
v 0.6546796083845573 0.625 0.6546796083845572
v 0.34532039161544276 0.375 0.6546796083845573
v 0.34532039161544276 0.625 0.6546796083845573
v 0.3453203916154427 0.375 0.34532039161544276
v 0.3453203916154427 0.625 0.34532039161544276
v 0.6546796083845572 0.375 0.3453203916154427
v 0.6546796083845572 0.625 0.3453203916154427
v 0.5 0.875 0.5
v 0.5 0.21875 0.5
vt 0 1
vt 1 1
vt 1 0
vt 0 0
vt 0.5 1
vt 1 0
vt 0 0
vt 0 1
vt 1 1
vt 1 0
vt 0 0
vt 0.5 1
vt 1 0
vt 0 0
vt 0 1
vt 1 1
vt 1 0
vt 0 0
vt 0.5 1
vt 1 0
vt 0 0
vt 0 1
vt 1 1
vt 1 0
vt 0 0
vt 0.5 1
vt 1 0
vt 0 0
vt 1 1
vt 0.5 0
vt 0 1
vt 1 1
vt 0.5 0
vt 0 1
vt 1 1
vt 0.5 0
vt 0 1
vt 1 1
vt 0.5 0
vt 0 1
vn 3.5887827627057713e-16 0 1
vn 3.051866428916245e-16 0.5261522196019801 0.8503904055243743
vn -1 0 1.7943913813528857e-16
vn -0.8503904055243742 0.5261522196019802 1.5259332144581224e-16
vn -1.7943913813528862e-16 0 -1
vn -1.5259332144581229e-16 0.5261522196019802 -0.8503904055243743
vn 1 0 -3.5887827627057723e-16
vn 0.8503904055243743 0.5261522196019802 -3.0518664289162457e-16
vn 2.550436852845124e-16 -0.7035264706814484 0.7106690545187015
vn -0.7106690545187015 -0.7035264706814485 1.275218426422562e-16
vn -1.2752184264225624e-16 -0.7035264706814485 -0.7106690545187014
vn 0.7106690545187014 -0.7035264706814485 -2.5504368528451247e-16
usemtl node_crystal
f 18/49/13 20/50/13 19/51/13 17/52/13
f 25/53/14 20/54/14 18/55/14
f 20/56/15 22/57/15 21/58/15 19/59/15
f 25/60/16 22/61/16 20/62/16
f 22/63/17 24/64/17 23/65/17 21/66/17
f 25/67/18 24/68/18 22/69/18
f 24/70/19 18/71/19 17/72/19 23/73/19
f 25/74/20 18/75/20 24/76/20
f 19/77/21 26/78/21 17/79/21
f 21/80/22 26/81/22 19/82/22
f 23/83/23 26/84/23 21/85/23
f 17/86/24 26/87/24 23/88/24
o Channel inlay
v 0.5625 0.09375 0.203125
v 0.5625 0.09375 0.186875
v 0.5625 0.03125 0.203125
v 0.5625 0.03125 0.186875
v 0.4375 0.09375 0.186875
v 0.4375 0.09375 0.203125
v 0.4375 0.03125 0.186875
v 0.4375 0.03125 0.203125
vt 0.4375000000 0.5312500000
vt 0.5625000000 0.5312500000
vt 0.5625000000 0.4687500000
vt 0.4375000000 0.4687500000
vt 0.4918750000 0.5312500000
vt 0.5081250000 0.5312500000
vt 0.5081250000 0.4687500000
vt 0.4918750000 0.4687500000
vt 0.4375000000 0.5312500000
vt 0.5625000000 0.5312500000
vt 0.5625000000 0.4687500000
vt 0.4375000000 0.4687500000
vt 0.4918750000 0.5312500000
vt 0.5081250000 0.5312500000
vt 0.5081250000 0.4687500000
vt 0.4918750000 0.4687500000
vt 0.4375000000 0.5081250000
vt 0.5625000000 0.5081250000
vt 0.5625000000 0.4918750000
vt 0.4375000000 0.4918750000
vt 0.4375000000 0.5081250000
vt 0.5625000000 0.5081250000
vt 0.5625000000 0.4918750000
vt 0.4375000000 0.4918750000
vn 0 0 -1
vn 1 0 0
vn 0 0 1
vn -1 0 0
vn 0 1 0
vn 0 -1 0
usemtl node_channel
f 30/92/25 33/91/25 31/90/25 28/89/25
f 29/96/26 30/95/26 28/94/26 27/93/26
f 34/100/27 29/99/27 27/98/27 32/97/27
f 33/104/28 34/103/28 32/102/28 31/101/28
f 32/108/29 27/107/29 28/106/29 31/105/29
f 33/112/30 30/111/30 29/110/30 34/109/30
