# Made in Blockbench 5.1.6
mtllib seed_storage_crystal.mtl

o Seed foot
v 0.75 0.125 0.75
v 0.75 0.125 0.25
v 0.75 0 0.75
v 0.75 0 0.25
v 0.25 0.125 0.25
v 0.25 0.125 0.75
v 0.25 0 0.25
v 0.25 0 0.75
vt 0.2500000000 0.5625000000
vt 0.7500000000 0.5625000000
vt 0.7500000000 0.4375000000
vt 0.2500000000 0.4375000000
vt 0.2500000000 0.5625000000
vt 0.7500000000 0.5625000000
vt 0.7500000000 0.4375000000
vt 0.2500000000 0.4375000000
vt 0.2500000000 0.5625000000
vt 0.7500000000 0.5625000000
vt 0.7500000000 0.4375000000
vt 0.2500000000 0.4375000000
vt 0.2500000000 0.5625000000
vt 0.7500000000 0.5625000000
vt 0.7500000000 0.4375000000
vt 0.2500000000 0.4375000000
vt 0.2500000000 0.7500000000
vt 0.7500000000 0.7500000000
vt 0.7500000000 0.2500000000
vt 0.2500000000 0.2500000000
vt 0.2500000000 0.7500000000
vt 0.7500000000 0.7500000000
vt 0.7500000000 0.2500000000
vt 0.2500000000 0.2500000000
vn 0 0 -1
vn 1 0 0
vn 0 0 1
vn -1 0 0
vn 0 1 0
vn 0 -1 0
usemtl node_stone
f 4/4/1 7/3/1 5/2/1 2/1/1
f 3/8/2 4/7/2 2/6/2 1/5/2
f 8/12/3 3/11/3 1/10/3 6/9/3
f 7/16/4 8/15/4 6/14/4 5/13/4
f 6/20/5 1/19/5 2/18/5 5/17/5
f 7/24/6 4/23/6 3/22/6 8/21/6
o Seed socket
v 0.6875 0.1875 0.6875
v 0.6875 0.1875 0.3125
v 0.6875 0.125 0.6875
v 0.6875 0.125 0.3125
v 0.3125 0.1875 0.3125
v 0.3125 0.1875 0.6875
v 0.3125 0.125 0.3125
v 0.3125 0.125 0.6875
vt 0.3125000000 0.5312500000
vt 0.6875000000 0.5312500000
vt 0.6875000000 0.4687500000
vt 0.3125000000 0.4687500000
vt 0.3125000000 0.5312500000
vt 0.6875000000 0.5312500000
vt 0.6875000000 0.4687500000
vt 0.3125000000 0.4687500000
vt 0.3125000000 0.5312500000
vt 0.6875000000 0.5312500000
vt 0.6875000000 0.4687500000
vt 0.3125000000 0.4687500000
vt 0.3125000000 0.5312500000
vt 0.6875000000 0.5312500000
vt 0.6875000000 0.4687500000
vt 0.3125000000 0.4687500000
vt 0.3125000000 0.6875000000
vt 0.6875000000 0.6875000000
vt 0.6875000000 0.3125000000
vt 0.3125000000 0.3125000000
vt 0.3125000000 0.6875000000
vt 0.6875000000 0.6875000000
vt 0.6875000000 0.3125000000
vt 0.3125000000 0.3125000000
vn 0 0 -1
vn 1 0 0
vn 0 0 1
vn -1 0 0
vn 0 1 0
vn 0 -1 0
usemtl node_trim
f 12/28/7 15/27/7 13/26/7 10/25/7
f 11/32/8 12/31/8 10/30/8 9/29/8
f 16/36/9 11/35/9 9/34/9 14/33/9
f 15/40/10 16/39/10 14/38/10 13/37/10
f 14/44/11 9/43/11 10/42/11 13/41/11
f 15/48/12 12/47/12 11/46/12 16/45/12
o Seed point
v 0.6458407736197254 0.1875 0.6458407736197254
v 0.6458407736197254 0.4375 0.6458407736197254
v 0.3541592263802746 0.1875 0.6458407736197254
v 0.3541592263802746 0.4375 0.6458407736197254
v 0.3541592263802745 0.1875 0.3541592263802746
v 0.3541592263802745 0.4375 0.3541592263802746
v 0.6458407736197254 0.1875 0.3541592263802745
v 0.6458407736197254 0.4375 0.3541592263802745
v 0.5 0.625 0.5
vt 0 1
vt 1 1
vt 1 0
vt 0 0
vt 0.5 1
vt 1 0
vt 0 0
vt 0 1
vt 1 1
vt 1 0
vt 0 0
vt 0.5 1
vt 1 0
vt 0 0
vt 0 1
vt 1 1
vt 1 0
vt 0 0
vt 0.5 1
vt 1 0
vt 0 0
vt 0 1
vt 1 1
vt 1 0
vt 0 0
vt 0.5 1
vt 1 0
vt 0 0
vt 0 1
vt 1 1
vt 1 0
vt 0 0
vn 0 0 1
vn 0 0.6139601294045421 0.7893370379638586
vn -1 0 1.9031423741621521e-16
vn -0.7893370379638585 0.6139601294045425 1.5022207644446582e-16
vn -1.9031423741621516e-16 0 -1
vn -1.502220764444658e-16 0.6139601294045424 -0.7893370379638585
vn 1 0 0
vn 0.7893370379638586 0.6139601294045421 0
vn 0 -1 0
usemtl node_crystal
f 18/49/13 20/50/13 19/51/13 17/52/13
f 25/53/14 20/54/14 18/55/14
f 20/56/15 22/57/15 21/58/15 19/59/15
f 25/60/16 22/61/16 20/62/16
f 22/63/17 24/64/17 23/65/17 21/66/17
f 25/67/18 24/68/18 22/69/18
f 24/70/19 18/71/19 17/72/19 23/73/19
f 25/74/20 18/75/20 24/76/20
f 17/77/21 19/78/21 21/79/21 23/80/21
o Channel inlay
v 0.5625 0.09375 0.265625
v 0.5625 0.09375 0.249375
v 0.5625 0.03125 0.265625
v 0.5625 0.03125 0.249375
v 0.4375 0.09375 0.249375
v 0.4375 0.09375 0.265625
v 0.4375 0.03125 0.249375
v 0.4375 0.03125 0.265625
vt 0.4375000000 0.5312500000
vt 0.5625000000 0.5312500000
vt 0.5625000000 0.4687500000
vt 0.4375000000 0.4687500000
vt 0.4918750000 0.5312500000
vt 0.5081250000 0.5312500000
vt 0.5081250000 0.4687500000
vt 0.4918750000 0.4687500000
vt 0.4375000000 0.5312500000
vt 0.5625000000 0.5312500000
vt 0.5625000000 0.4687500000
vt 0.4375000000 0.4687500000
vt 0.4918750000 0.5312500000
vt 0.5081250000 0.5312500000
vt 0.5081250000 0.4687500000
vt 0.4918750000 0.4687500000
vt 0.4375000000 0.5081250000
vt 0.5625000000 0.5081250000
vt 0.5625000000 0.4918750000
vt 0.4375000000 0.4918750000
vt 0.4375000000 0.5081250000
vt 0.5625000000 0.5081250000
vt 0.5625000000 0.4918750000
vt 0.4375000000 0.4918750000
vn 0 0 -1
vn 1 0 0
vn 0 0 1
vn -1 0 0
vn 0 1 0
vn 0 -1 0
usemtl node_channel
f 29/84/22 32/83/22 30/82/22 27/81/22
f 28/88/23 29/87/23 27/86/23 26/85/23
f 33/92/24 28/91/24 26/90/24 31/89/24
f 32/96/25 33/95/25 31/94/25 30/93/25
f 31/100/26 26/99/26 27/98/26 30/97/26
f 32/104/27 29/103/27 28/102/27 33/101/27
